<?xml version="1.0" standalone="no"?>
<!DOCTYPE svg PUBLIC "-//W3C//DTD SVG 20010904//EN"
 "http://www.w3.org/TR/2001/REC-SVG-20010904/DTD/svg10.dtd">
<svg version="1.0" xmlns="http://www.w3.org/2000/svg"
 width="512.000000pt" height="512.000000pt" viewBox="0 0 512.000000 512.000000"
 preserveAspectRatio="xMidYMid meet">

<g transform="translate(0.000000,512.000000) scale(0.100000,-0.100000)"
fill="#000000" stroke="none">
<path d="M1010 5113 c-212 -21 -279 -43 -358 -117 -63 -59 -102 -136 -115
-231 l-11 -75 -106 0 c-66 0 -126 -6 -157 -15 -112 -33 -208 -130 -243 -245
-20 -64 -20 -90 -18 -1360 l3 -1295 33 -67 c53 -109 153 -186 271 -208 34 -6
353 -10 849 -10 l794 0 -6 28 c-3 15 -11 73 -18 129 -14 121 0 305 32 420 11
40 20 75 20 77 0 2 -39 21 -87 41 -290 125 -555 174 -859 160 -151 -7 -152 -6
-168 16 -14 21 -16 134 -16 1200 0 1106 1 1178 18 1197 14 17 36 23 114 32
410 44 786 -64 1131 -323 l77 -59 0 -937 0 -938 93 92 c50 50 121 111 157 136
l65 45 3 803 2 803 23 19 c55 47 250 171 332 212 184 91 386 143 598 153 150
8 333 -9 359 -33 17 -15 18 -58 18 -945 0 -740 3 -929 13 -924 41 17 182 58
237 70 l65 13 3 696 2 697 94 0 c66 0 97 -4 105 -13 8 -10 12 -212 13 -693 l3
-679 75 -7 c71 -7 188 -30 224 -44 15 -6 16 51 14 738 l-3 743 -32 66 c-39 79
-102 140 -181 177 -51 24 -71 27 -183 30 l-126 4 -5 63 c-7 82 -46 167 -106
228 -91 93 -184 121 -442 133 -396 18 -779 -91 -1114 -318 -59 -40 -118 -79
-130 -87 -21 -13 -29 -9 -118 54 -274 195 -577 312 -897 344 -97 10 -262 12
-341 4z m-480 -1743 c0 -701 3 -1015 11 -1052 25 -117 99 -212 207 -265 57
-28 57 -28 242 -25 360 5 592 -42 835 -167 l90 -46 -774 -3 c-681 -2 -777 0
-798 13 l-23 15 0 1250 c0 1122 2 1250 16 1264 12 12 37 16 105 16 l89 0 0
-1000z"/>
<path d="M3035 2553 c-321 -45 -589 -289 -666 -608 -61 -254 14 -536 228 -860
199 -300 541 -656 927 -964 183 -146 221 -152 353 -51 470 355 929 854 1103
1201 103 203 134 318 134 494 0 151 -14 216 -75 342 -154 322 -516 506 -861
439 -151 -30 -254 -79 -376 -178 l-73 -59 -55 50 c-164 150 -412 225 -639 194z"/>
</g>
</svg>
