<?xml version="1.0" standalone="no"?>
<!DOCTYPE svg PUBLIC "-//W3C//DTD SVG 20010904//EN"
 "http://www.w3.org/TR/2001/REC-SVG-20010904/DTD/svg10.dtd">
<svg version="1.0" xmlns="http://www.w3.org/2000/svg"
 width="406.000000pt" height="489.000000pt" viewBox="0 0 406.000000 489.000000"
 preserveAspectRatio="xMidYMid meet">

<g transform="translate(0.000000,489.000000) scale(0.100000,-0.100000)"
fill="#FFFFFF" stroke="none">
<path d="M3500 4651 c-151 -81 -527 -282 -835 -447 l-560 -299 -90 0 -90 0
-805 429 c-876 467 -870 464 -920 412 -33 -36 -33 -114 1 -182 39 -82 100
-131 299 -240 277 -153 761 -412 1068 -574 191 -100 286 -156 314 -184 53 -53
90 -133 91 -198 1 -45 -3 -54 -32 -80 -28 -25 -40 -29 -68 -25 -48 8 -682 339
-1299 678 -300 165 -327 174 -374 124 -20 -21 -24 -36 -23 -78 2 -92 59 -186
146 -241 95 -60 688 -380 1217 -657 312 -163 365 -200 405 -284 40 -85 37
-169 -8 -200 -44 -31 -82 -19 -296 91 -313 162 -689 362 -961 512 -427 236
-423 234 -477 188 -25 -22 -28 -31 -27 -83 0 -72 34 -142 96 -199 28 -26 200
-123 503 -283 253 -134 487 -258 520 -276 33 -18 191 -101 350 -186 l290 -154
80 0 80 0 805 427 c519 275 821 440 850 466 25 22 59 64 75 93 l30 54 3 748 2
747 -24 25 c-14 14 -33 25 -43 24 -10 0 -142 -67 -293 -148z"/>
<path d="M199 2771 l-24 -19 -3 -734 c-2 -518 0 -745 8 -773 17 -61 76 -140
133 -178 29 -19 243 -136 477 -260 234 -123 584 -309 779 -412 221 -118 371
-191 400 -197 28 -5 64 -5 94 2 30 6 338 163 825 421 427 226 798 425 824 441
77 48 148 165 148 244 0 64 -57 112 -116 98 -16 -4 -141 -69 -279 -144 -328
-180 -570 -310 -958 -515 -353 -186 -374 -193 -424 -142 -56 56 -23 189 71
280 30 30 119 81 302 176 290 150 684 360 1029 549 179 97 241 137 281 177
156 157 98 363 -77 272 -24 -13 -163 -89 -309 -169 -516 -283 -1184 -630
-1222 -636 -104 -14 -137 107 -63 233 45 78 93 110 410 275 385 202 781 415
1030 554 216 121 269 167 305 263 28 73 22 128 -15 160 -34 29 -67 29 -134 -2
-30 -14 -403 -211 -830 -438 l-776 -412 -70 0 -70 0 -225 119 c-124 66 -502
266 -841 446 -338 180 -625 330 -636 334 -13 4 -29 -1 -44 -13z"/>
</g>
</svg>
